# xmcd
#
# Track frame offsets:
#	150
#	15004
#	26544
#	41109
#	59782
#	75360
#	89021
#	102211
#	119678
#	137662
#	150486
#	167163
#	183678
#	197750
#	216231
#	233304
#	250280
#
# Disc length: 3545 seconds
#
# Revision: 1
# Processed by: cddbd v1.5.2PL0 Copyright (c) Steve Scherf et al.
# Submitted via: EZCDAudioConverter 5.0.0.1
#
DISCID=e10dd711
DTITLE=Various Artist - International Country Music Jubilee Festival CD 2
DYEAR=2004
DGENRE=Country
TTITLE0=John Brack - Head' Em Off At The Past
TTITLE1=Suzanne Klee - Sweet Nothins'
TTITLE2=Buddy Dee - That Girl Likes To Dance
TTITLE3=Jeff Turner - Qne Good Reason
TTITLE4=Marco Gottardi - Take It Don't Break It
TTITLE5=Rodeo Ranchers - Who Said That
TTITLE6=Nevada - Wella Wella Alright
TTITLE7=Bonnie Jeanne Taylor - Silver Of The Moon
TTITLE8=Che And Ray And John Brack - Country Boogie Woogie
TTITLE9=Joe Schwach Helmut Schöni With Figaro And His Sega Band - Hey Good Loo
TTITLE9=kin'
TTITLE10=N Y Cole - Be Careful What You Wish For
TTITLE11=Rusty Nugget - Railroad Lady
TTITLE12=Doris Ackermann - Parties On Monday
TTITLE13=Krüger Brothers - Free Born Man
TTITLE14=The Sunday Skifflers - Yakety Sax Night Train
TTITLE15=Susanne Orus And John Berry - Yours Love Amazes Me
TTITLE16=Rolf Raggenbass - That's Why My Baby Loves Me
EXTD=
EXTT0=
EXTT1=
EXTT2=
EXTT3=
EXTT4=
EXTT5=
EXTT6=
EXTT7=
EXTT8=
EXTT9=
EXTT10=
EXTT11=
EXTT12=
EXTT13=
EXTT14=
EXTT15=
EXTT16=
PLAYORDER=
